<?xml version="1.0" encoding="UTF-8" standalone="no"?>
<!-- Created with Inkscape (http://www.inkscape.org/) -->

<svg
   width="77.027061mm"
   height="45.9743mm"
   viewBox="0 0 77.027062 45.9743"
   version="1.1"
   id="svg7072"
   inkscape:version="1.1.2 (0a00cf5339, 2022-02-04, custom)"
   sodipodi:docname="branding.svg"
   xmlns:inkscape="http://www.inkscape.org/namespaces/inkscape"
   xmlns:sodipodi="http://sodipodi.sourceforge.net/DTD/sodipodi-0.dtd"
   xmlns="http://www.w3.org/2000/svg"
   xmlns:svg="http://www.w3.org/2000/svg">
  <sodipodi:namedview
     id="namedview7074"
     pagecolor="#505050"
     bordercolor="#eeeeee"
     borderopacity="1"
     inkscape:pageshadow="0"
     inkscape:pageopacity="0"
     inkscape:pagecheckerboard="0"
     inkscape:document-units="mm"
     showgrid="false"
     inkscape:zoom="1.3800865"
     inkscape:cx="9.4196993"
     inkscape:cy="47.098496"
     inkscape:window-width="1536"
     inkscape:window-height="791"
     inkscape:window-x="0"
     inkscape:window-y="0"
     inkscape:window-maximized="1"
     inkscape:current-layer="layer1" />
  <defs
     id="defs7069" />
  <g
     inkscape:label="Livello 1"
     inkscape:groupmode="layer"
     id="layer1"
     transform="translate(-1.6568536,-1.6798228)">
    <path
       style="fill:none;stroke:#ffffff;stroke-width:1.865;stroke-linecap:round;stroke-linejoin:round;stroke-miterlimit:4;stroke-dasharray:none;stroke-opacity:1"
       d="M 10.4068,22.737006 C -2.0768752,27.433662 6.4654885,6.0140828 12.33641,17.211307 10.905445,20.227364 2.2195603,19.522372 2.6006535,14.316894"
       id="path4056"
       sodipodi:nodetypes="ccc" />
    <path
       style="fill:none;stroke:#ffffff;stroke-width:1.865;stroke-linecap:round;stroke-linejoin:round;stroke-miterlimit:4;stroke-dasharray:none;stroke-opacity:1"
       d="m 63.166423,27.860534 c 4.213288,13.429775 9.082552,7.072331 7.567721,-0.116427 0.987466,8.455346 -0.928752,14.230367 -3.9585,18.977515"
       id="path7243"
       sodipodi:nodetypes="ccc" />
    <path
       style="fill:none;stroke:#ffffff;stroke-width:1.865;stroke-linecap:round;stroke-linejoin:round;stroke-miterlimit:4;stroke-dasharray:none;stroke-opacity:1"
       d="M 11.025659,41.199397 C 9.3835845,36.956094 7.7384485,31.763175 10.327101,29.673178 c 2.136224,-0.97761 5.473264,-0.06037 7.297997,0.391068 C 13.46796,25.192769 14.33859,17.065527 15.449866,10.46281 c 3.080129,-0.9961136 6.021852,-0.60817 8.964837,-0.232853 2.23278,9.900852 4.974423,11.659889 7.605488,15.188179 C 26.611931,18.472809 26.844306,12.051746 28.256778,5.8057516 32.955767,5.0171348 36.690447,5.407119 40.132276,6.155031 36.507955,27.802167 39.255063,31.39692 40.364016,39.633115 28.64473,35.189566 24.970741,25.943735 22.086174,18.845516 c 2.656271,7.102015 3.201799,14.204029 0.298552,21.306044 z"
       id="path1024"
       sodipodi:nodetypes="cccccccccccc" />
    <path
       style="fill:none;stroke:#ffffff;stroke-width:1.865;stroke-linecap:butt;stroke-linejoin:miter;stroke-miterlimit:4;stroke-dasharray:none;stroke-opacity:1"
       d="m 43.769548,2.9047785 c 4.202256,-0.9210703 7.065486,0.4533308 9.908442,1.8624891 0,0 -7.02795,24.3154214 -5.661965,25.1063514 1.309138,0.758015 14.154916,-19.742383 14.154916,-19.742383 2.815381,1.580093 6.083304,2.707643 7.598954,5.587466 0.0239,2.781317 -0.456235,5.562634 -3.575978,8.343951 -1.20828,0.204498 -2.534886,0.270948 -4.916972,-0.893995 0,0 -9.117348,15.905548 -15.495907,13.335421 -6.913786,-2.785787 -2.01149,-33.5993005 -2.01149,-33.5993005 z"
       id="path2370"
       sodipodi:nodetypes="ccsccccsc" />
    <path
       sodipodi:type="star"
       style="fill:#ffffff;fill-opacity:1;stroke:#ffffff;stroke-width:7.04956;stroke-linecap:round;stroke-linejoin:miter;stroke-miterlimit:4.1;stroke-dasharray:none;stroke-opacity:1;paint-order:stroke fill markers"
       id="path4782"
       inkscape:flatsided="false"
       sodipodi:sides="4"
       sodipodi:cx="35.839203"
       sodipodi:cy="-97.457481"
       sodipodi:r1="39.656635"
       sodipodi:r2="12.38805"
       sodipodi:arg1="-0.047583103"
       sodipodi:arg2="0.3748228"
       inkscape:rounded="0"
       inkscape:randomized="0"
       d="m 75.450952,-99.343755 -28.08377,6.421633 -9.641705,35.07639 -6.421634,-28.083771 -35.0763896,-9.641705 28.0837706,-6.421632 9.641705,-35.07639 6.421634,28.08377 z"
       transform="matrix(0.13592565,0,0,0.13592565,66.465376,29.582145)" />
  </g>
</svg>
