<?xml version="1.0" encoding="UTF-8" standalone="no"?>
<!-- Created with Inkscape (http://www.inkscape.org/) -->

<svg
   xmlns:dc="http://purl.org/dc/elements/1.1/"
   xmlns:cc="http://creativecommons.org/ns#"
   xmlns:rdf="http://www.w3.org/1999/02/22-rdf-syntax-ns#"
   xmlns:svg="http://www.w3.org/2000/svg"
   xmlns="http://www.w3.org/2000/svg"
   xmlns:sodipodi="http://sodipodi.sourceforge.net/DTD/sodipodi-0.dtd"
   xmlns:inkscape="http://www.inkscape.org/namespaces/inkscape"
   width="265mm"
   height="154mm"
   viewBox="0 0 265 154"
   version="1.1"
   id="svg8"
   inkscape:version="0.92.5 (2060ec1f9f, 2020-04-08)"
   sodipodi:docname="envy logo.svg">
  <defs
     id="defs2" />
  <sodipodi:namedview
     id="base"
     pagecolor="#ffffff"
     bordercolor="#666666"
     borderopacity="1.0"
     inkscape:pageopacity="0.0"
     inkscape:pageshadow="2"
     inkscape:zoom="0.49497475"
     inkscape:cx="613.61729"
     inkscape:cy="88.210784"
     inkscape:document-units="mm"
     inkscape:current-layer="layer1"
     showgrid="false"
     inkscape:window-width="1920"
     inkscape:window-height="1023"
     inkscape:window-x="0"
     inkscape:window-y="27"
     inkscape:window-maximized="1" />
  <metadata
     id="metadata5">
    <rdf:RDF>
      <cc:Work
         rdf:about="">
        <dc:format>image/svg+xml</dc:format>
        <dc:type
           rdf:resource="http://purl.org/dc/dcmitype/StillImage" />
        <dc:title></dc:title>
      </cc:Work>
    </rdf:RDF>
  </metadata>
  <g
     inkscape:label="Livello 1"
     inkscape:groupmode="layer"
     id="layer1"
     transform="translate(0,-143)">
    <path
       style="fill:#000000;stroke-width:0.35277778"
       d="m 32.461103,296.56197 c -2.23132,-0.16912 -5.324272,-0.58622 -6.873212,-0.92689 -2.78783,-0.61314 -2.81844,-0.63187 -3.03021,-1.85412 -0.11767,-0.6791 -1.00788,-2.98097 -1.97826,-5.11528 -1.72752,-3.79962 -2.36307,-5.58697 -4.01411,-11.28889 -0.44946,-1.55222 -0.92734,-2.98097 -1.06195,-3.175 -0.13462,-0.19403 -0.32232,-0.9084 -0.41711,-1.5875 -0.0948,-0.6791 -0.58354,-3.29847 -1.08609,-5.82083 -2.06322,-10.3554 -2.39474,-12.55796 -2.57533,-17.10972 -0.13465,-3.39364 -0.0402,-5.57368 0.3286,-7.58472 0.5573,-3.03903 2.7744,-9.12229 3.70401,-10.16305 2.05051,-2.2957 10.72508,-6.18644 17.030127,-7.63837 1.85782,-0.42783 3.548038,-0.88378 3.756043,-1.01322 0.243216,-0.15136 0.422628,-2.91088 0.502701,-7.73199 0.06848,-4.12315 0.08947,-7.49659 0.04663,-7.49653 -0.04283,6e-5 -0.766057,0.48517 -1.60716,1.07804 -1.895521,1.33608 -7.298275,2.79817 -10.485795,2.83765 -2.81204,0.0348 -7.32926,-0.8796 -9.22412,-1.86726 -2.50601,-1.3062 -4.96477,-3.89095 -6.5217201,-6.8559 -2.15777,-4.10911 -2.38252,-5.50165 -2.0852,-12.91994 l 0.25418,-6.34199 -3.55879,-3.45098 c -3.34932997,-3.24786 -3.55879997,-3.5346 -3.55879997,-4.87152 0,-2.71049 2.33314997,-4.29689 6.31953997,-4.29689 1.72083,0 1.93034,0.10239 3.5750398,1.74709 0.9609003,0.9609 1.7470903,1.98341 1.7470903,2.27224 0,1.16743 0.74744,0.81487 2.79661,-1.31912 1.18412,-1.23313 2.66648,-2.49198 3.29414,-2.79743 2.2021,-1.07166 6.41714,-2.11707 8.42131,-2.08865 1.98093,0.0281 3.960368,0.78772 6.338538,2.43247 0.906135,0.62669 4.564095,4.74966 5.719407,6.44648 0.326637,0.47974 0.593888,0.66619 0.593888,0.41433 0,-0.48175 2.273893,-4.58051 3.806902,-6.86205 0.683031,-1.01654 1.622468,-1.68609 3.872404,-2.75994 1.633827,-0.7798 4.027177,-1.63362 5.318559,-1.8974 1.291386,-0.26377 4.691081,-0.7417 7.554882,-1.06207 4.328372,-0.48421 5.875966,-0.5153 9.172223,-0.18431 6.401541,0.6428 11.559248,1.40682 14.073605,2.08473 l 2.347186,0.63284 0.381572,-2.56552 c 0.697336,-4.68856 4.199912,-13.92563 6.092049,-16.06611 0.958417,-1.0842 5.202471,-2.76902 9.178708,-3.64379 2.12536,-0.46758 3.9086,-0.56246 8.29028,-0.44108 3.07037,0.085 6.61436,0.33848 7.87554,0.56319 2.63919,0.47024 8.45962,2.04929 10.13713,2.75015 0.62772,0.26226 3.29837,1.02968 5.93479,1.70538 2.63641,0.67571 5.74387,1.61244 6.90547,2.08163 l 2.112,0.85307 0.3317,-0.87242 c 0.18243,-0.47983 0.33169,-0.95715 0.33169,-1.06072 0,-0.4733 1.30985,-2.94211 2.49609,-4.70465 1.61792,-2.40393 2.66522,-3.36211 4.0303,-3.68732 1.68984,-0.40258 11.65526,-0.24042 12.7649,0.20772 0.54639,0.22066 1.62844,0.52862 2.40455,0.68436 6.43556,1.29135 11.38628,2.79748 20.10833,6.11745 5.90832,2.24895 7.81374,3.59545 9.30179,6.57331 0.6019,1.20451 1.27816,2.41147 1.50281,2.68216 0.22464,0.27068 0.30783,0.59277 0.18485,0.71575 -0.12298,0.12297 -0.0515,0.43096 0.15884,0.68441 0.54464,0.65625 0.86588,9.99925 0.39068,11.36242 l -0.38015,1.0905 2.68516,-1.40599 c 1.47685,-0.7733 2.85549,-1.54689 3.06365,-1.7191 0.63693,-0.52691 6.59554,-2.07835 8.93886,-2.32741 1.2157,-0.12921 3.13329,-0.23493 4.26129,-0.23493 2.04016,0 2.07114,0.0159 5.90352,3.02345 2.11893,1.66289 6.39975,5.52846 9.51294,8.59014 6.14091,6.0393 6.62524,6.56342 10.19694,11.03474 3.2527,4.07197 4.3454,5.29167 4.74068,5.29167 0.55137,0 1.76962,-4.17965 2.26739,-7.77911 0.25628,-1.85316 0.58359,-3.55972 0.72737,-3.79236 0.37589,-0.60819 1.51777,-0.52105 1.76953,0.13505 0.11778,0.30691 0.21462,0.98159 0.21521,1.4993 0.002,1.76146 1.4078,8.3409 2.33377,10.92248 0.75891,2.11581 1.39485,3.08718 3.57991,5.46806 1.46139,1.59235 3.13431,3.24781 3.71759,3.67878 0.58329,0.43097 1.86931,1.04499 2.85784,1.36448 2.22871,0.72032 2.8249,1.24705 2.51536,2.22231 -0.16798,0.52926 -0.52849,0.7449 -1.24535,0.7449 -1.04684,0 -4.8285,1.81185 -6.75874,3.23823 -1.75749,1.29872 -4.03664,3.64011 -4.618,4.74413 -0.29353,0.55741 -1.02526,1.89688 -1.62607,2.9766 -1.02169,1.83611 -1.77005,4.5788 -2.328,8.53201 -0.20454,1.44925 -0.34704,1.67569 -1.05443,1.67569 -0.7407,0 -0.8341,-0.19153 -0.9892,-2.02847 -0.0942,-1.11566 -0.4376,-2.63502 -0.76312,-3.37636 l -0.59186,-1.34789 -1.7314,2.40622 c -0.95226,1.32343 -1.8595,2.56498 -2.01607,2.759 -0.15657,0.19403 -1.49513,1.86091 -2.97458,3.70417 -1.47945,1.84326 -3.10439,3.70665 -3.61097,4.14086 -0.50658,0.43421 -1.79682,1.28372 -2.86719,1.8878 l -1.94613,1.09833 -6.43458,0.0414 c -6.17637,0.0397 -6.53969,0.003 -9.05401,-0.91766 -1.44069,-0.52749 -2.95131,-0.95906 -3.35694,-0.95906 -1.04075,0 -9.36877,6.64369 -15.01391,11.97739 -2.61937,2.47486 -6.0325,5.50822 -7.58472,6.7408 -1.55222,1.23258 -3.78233,3.12116 -4.95578,4.19685 -4.23708,3.88404 -8.09327,6.39051 -11.272,7.3266 -4.69496,1.38262 -6.79591,1.82058 -10.58334,2.20619 -2.32833,0.23706 -4.33001,0.45484 -4.44816,0.48395 -0.11816,0.0291 -1.26005,1.28736 -2.53752,2.7961 -2.03945,2.40865 -5.47955,5.54711 -6.08025,5.54711 -0.11567,0 -0.71566,0.38175 -1.3333,0.84833 -2.41795,1.82655 -5.50924,3.34669 -8.8841,4.36878 -6.35998,1.92614 -12.96325,2.55679 -19.52259,1.86452 -2.26244,-0.23877 -4.90728,-0.67889 -5.87742,-0.97802 -3.09006,-0.95281 -6.5776,-2.60606 -9.50467,-4.50564 -1.56341,-1.0146 -3.795062,-2.41738 -4.959229,-3.1173 -2.604858,-1.56609 -9.352859,-7.09662 -11.358493,-9.3092 -1.471997,-1.62389 -1.482644,-1.62849 -1.809044,-0.78234 -2.146495,5.56448 -2.875457,7.2039 -4.143122,9.31782 -0.814479,1.35819 -1.817557,3.18784 -2.229065,4.06589 -0.979537,2.09006 -6.12404,7.1519 -9.762534,9.60568 -4.340589,2.92727 -9.218507,4.18294 -19.38108,4.98907 -6.985947,0.55415 -11.47055,0.59917 -17.109724,0.17176 z m 22.930558,-2.58057 c 5.713773,-1.16432 9.427278,-2.2683 11.9329,-3.54751 1.679317,-0.85736 6.894157,-5.38877 8.124635,-7.05988 1.465185,-1.98986 4.459563,-7.05827 5.316108,-8.99828 0.470574,-1.0658 1.325108,-2.9286 1.898964,-4.13954 0.730783,-1.54209 1.096374,-2.94249 1.220287,-4.6743 0.126513,-1.76819 0.314159,-2.4726 0.658678,-2.4726 0.264972,0 0.481764,0.15273 0.481764,0.33939 0,0.60252 5.290338,6.71617 5.811719,6.71617 0.277375,0 1.027899,0.52676 1.667827,1.17057 0.639932,0.64382 1.786238,1.63601 2.547349,2.20486 0.761111,0.56886 1.804801,1.43116 2.319316,1.91623 2.344501,2.21034 13.395552,8.26106 15.806952,8.65471 0.71709,0.11706 2.3537,0.43711 3.63691,0.71122 1.69076,0.36118 3.77896,0.44717 7.58472,0.31233 2.88839,-0.10234 6.88361,-0.41681 8.87826,-0.69883 1.99466,-0.28202 2.85077,-0.70175 2.94191,-0.70175 0.0911,0 0.81808,-0.21563 1.2524,-0.42557 0.25754,-0.12449 0.56501,-0.51631 1.79224,-0.8 2.63959,-0.61018 5.15316,-1.85236 7.20704,-3.56163 0.90793,-0.75559 1.87931,-1.37381 2.15861,-1.37381 0.55099,0 3.62637,-3.04862 5.78157,-5.73128 1.22701,-1.5273 1.47804,-1.67445 2.8585,-1.67569 0.83235,-7.5e-4 2.13571,-0.31886 2.89636,-0.70692 1.57555,-0.80378 2.34881,-0.89107 2.54989,-0.28784 0.10168,0.30505 0.54256,0.25633 1.63466,-0.18064 0.82248,-0.3291 1.92399,-0.56925 2.4478,-0.53369 1.13456,0.077 1.80645,-0.10845 5.62668,-1.55333 1.60073,-0.60542 2.91042,-1.23061 2.91042,-1.3893 0,-0.15869 0.17516,-0.28853 0.38924,-0.28853 0.21409,0 1.63559,-1.07156 3.15891,-2.38125 1.52331,-1.30969 4.16596,-3.45065 5.87256,-4.7577 1.70659,-1.30704 4.45228,-3.66051 6.10151,-5.22993 1.64924,-1.56941 3.55424,-3.32775 4.23334,-3.90741 0.67909,-0.57966 2.02847,-1.8034 2.99861,-2.71942 1.69059,-1.59629 6.97469,-5.94998 10.31002,-8.49466 1.77565,-1.35472 0.8615,-1.38002 7.68165,0.2126 3.23334,0.75504 11.9097,0.68843 14.38444,-0.11044 2.57803,-0.83221 6.01415,-4.59753 11.60395,-12.71571 1.46928,-2.13385 1.94911,-3.11852 1.80944,-3.71319 -0.29154,-1.24129 -2.49053,-5.76871 -3.01216,-6.20162 -0.35733,-0.29656 -0.83005,0.0745 -2.07186,1.6264 -0.8849,1.10585 -1.81588,2.40557 -2.06886,2.88828 -0.78038,1.48907 -9.93955,10.12825 -11.63943,10.97864 -0.9964,0.49846 -2.26428,0.80581 -3.37063,0.81707 -1.71275,0.0174 -2.85784,-0.34494 -6.75922,-2.13905 -1.00643,-0.46282 -1.93232,-0.8415 -2.05753,-0.8415 -0.12521,0 -1.31276,-0.47625 -2.63898,-1.05833 -1.32622,-0.58209 -2.70221,-1.05805 -3.05774,-1.0577 -0.37527,3.5e-4 -1.04631,0.62927 -1.59973,1.4993 -0.80648,1.26785 -6.50274,8.11236 -9.76153,11.72923 -0.52446,0.58208 -2.51696,2.80458 -4.42779,4.93889 -4.36858,4.8795 -8.67131,9.34861 -9.00059,9.34861 -0.13852,0 -0.63103,0.40362 -1.09447,0.89692 -0.95426,1.01576 -5.22181,3.63983 -9.15815,5.63125 -1.45521,0.7362 -3.12209,1.58926 -3.70417,1.8957 -0.6032,0.31755 -2.23041,0.61417 -3.78379,0.68972 -2.0411,0.0993 -3.32554,-0.0499 -5.11528,-0.59422 -2.36399,-0.71892 -6.6324,-3.26302 -7.19098,-4.28604 -1.55256,-2.84345 -2.13959,-4.96151 -2.7377,-9.87777 -0.20064,-1.64924 -0.55784,-4.26861 -0.79378,-5.82084 -0.28216,-1.85631 -0.46691,-9.10065 -0.53981,-21.16666 -0.061,-10.08945 -0.27555,-19.85257 -0.47685,-21.69584 -0.25088,-2.29715 -0.25421,-6.40312 -0.0106,-13.05277 0.37631,-10.27167 0.61597,-13.35309 1.74226,-22.40139 0.82384,-6.61854 1.57082,-10.07478 2.29128,-10.60159 0.28471,-0.20818 2.20724,-0.57492 4.27229,-0.81496 3.24961,-0.37774 4.26034,-0.35714 7.51429,0.15311 2.06782,0.32425 5.74644,1.26566 8.17472,2.09203 5.68263,1.93384 14.03518,5.63397 15.19409,6.73088 0.49568,0.46916 1.091,0.85303 1.32292,0.85303 0.70289,0 0.47479,1.90816 -0.49026,4.10124 -1.68169,3.82166 -1.82715,4.18081 -2.55388,6.3057 -0.39815,1.16417 -1.06588,3.3073 -1.48384,4.7625 -0.41797,1.45521 -1.21602,3.91584 -1.77345,5.46806 -0.55743,1.55222 -1.33844,4.25097 -1.73558,5.99722 -0.83385,3.66647 -1.91967,7.51159 -4.08447,14.46389 -1.7391,5.58517 -2.82682,9.59127 -4.40612,16.22778 -0.60025,2.52236 -1.47722,5.55106 -1.94883,6.73045 -0.4716,1.17939 -0.86251,2.37002 -0.86868,2.64584 -0.006,0.27581 -0.2443,0.80964 -0.52917,1.18627 -0.28487,0.37663 -0.51795,0.95372 -0.51795,1.28241 0,0.32868 -0.22425,1.36991 -0.49833,2.31382 -0.27408,0.94391 -0.66574,2.34294 -0.87035,3.10894 l -0.37202,1.39274 1.03457,-1.03996 c 1.84748,-1.8571 10.23043,-13.91434 10.23196,-14.71668 3.6e-4,-0.23892 0.47595,-0.99001 1.05665,-1.66911 0.5807,-0.6791 1.77258,-2.70744 2.64861,-4.50742 0.93126,-1.91346 3.15054,-5.35662 5.34348,-8.29028 2.06288,-2.75967 3.8706,-5.09695 4.01715,-5.19397 0.14655,-0.097 1.42038,-2.00201 2.83075,-4.23333 1.41037,-2.23132 2.67321,-4.13632 2.80632,-4.23333 0.13312,-0.097 0.95695,-1.53729 1.83075,-3.2006 0.87378,-1.66332 2.19048,-3.96519 2.92599,-5.11528 1.44575,-2.26068 4.93521,-6.90232 6.13577,-8.16173 0.40842,-0.42845 0.74259,-0.91469 0.74259,-1.08053 0,-0.16584 0.46135,-0.74353 1.02522,-1.28375 0.75521,-0.72354 1.22587,-0.91855 1.78705,-0.74044 1.3608,0.4319 5.41385,3.38225 8.18188,5.95587 1.48713,1.38268 4.84399,4.49833 7.45969,6.92368 2.6157,2.42535 4.7724,4.54725 4.79266,4.71535 0.0203,0.16809 0.92618,1.26622 2.01315,2.44029 2.1018,2.27019 5.40865,6.57115 6.13611,7.98076 l 0.4381,0.84891 1.18318,-1.37807 c 0.65074,-0.75794 1.60219,-1.96794 2.11433,-2.6889 l 0.93116,-1.31082 -1.58891,-2.21696 c -0.87389,-1.21932 -2.00296,-2.60181 -2.50904,-3.07219 -0.50607,-0.47039 -0.92014,-1.00279 -0.92014,-1.18311 0,-0.58073 -5.6682,-7.05656 -8.40563,-9.60332 -1.45989,-1.35819 -4.17428,-3.89843 -6.03199,-5.64496 -3.10354,-2.91781 -5.59575,-4.84646 -8.68133,-6.7182 -1.0663,-0.64683 -1.50761,-0.6936 -4.26421,-0.45191 -1.69115,0.14828 -4.14095,0.59956 -5.44399,1.00284 -2.08782,0.64618 -8.35753,3.60522 -10.42959,4.92235 -0.41086,0.26116 -1.02272,0.36905 -1.35968,0.23974 -0.50323,-0.1931 -0.57149,-0.50236 -0.38211,-1.73137 0.1268,-0.82294 0.3162,-3.11141 0.42088,-5.08547 0.24746,-4.66641 -0.46057,-8.24481 -2.2297,-11.26909 -0.70767,-1.20974 -1.53833,-2.28916 -1.84591,-2.39871 -0.30758,-0.10955 -1.29143,-0.65937 -2.18633,-1.22181 -1.58372,-0.99536 -5.62257,-2.58676 -13.54236,-5.336 -3.95851,-1.37414 -7.97383,-2.36047 -11.49106,-2.82268 -1.08133,-0.14211 -2.30704,-0.44086 -2.72379,-0.6639 -0.45205,-0.24193 -2.55001,-0.41006 -5.20047,-0.41676 -3.58122,-0.009 -4.69396,0.112 -5.73823,0.62429 -1.84398,0.90461 -3.77264,3.66983 -5.05673,7.25012 -1.24405,3.46862 -1.45483,3.59438 -3.91805,2.33774 -2.06953,-1.05579 -4.84847,-1.97148 -8.5478,-2.81657 -1.75174,-0.40018 -4.77248,-1.25414 -6.71276,-1.89769 -1.94028,-0.64354 -5.57465,-1.59841 -8.07638,-2.12192 -4.12592,-0.86339 -5.07662,-0.93797 -10.23056,-0.80254 -5.49283,0.14433 -5.79937,0.19242 -9.20974,1.44491 -1.940278,0.71259 -3.924653,1.58533 -4.409723,1.93943 -1.085483,0.79239 -2.566205,3.56453 -3.89739,7.2965 -1.525757,4.27744 -2.049343,6.45393 -2.221291,9.23361 -0.08611,1.39197 -0.262121,2.70165 -0.391146,2.91042 -0.32622,0.52784 -1.662395,0.47431 -2.495705,-0.1 -0.382722,-0.26376 -1.489608,-0.65808 -2.459747,-0.87626 -2.320258,-0.52184 -8.841773,-1.54679 -10.406946,-1.63561 -0.679097,-0.0385 -2.822222,-0.1945 -4.7625,-0.34657 -2.623986,-0.20566 -4.79309,-0.12078 -8.466668,0.33132 -8.467528,1.04209 -12.756294,2.99941 -15.249671,6.95968 -2.555773,4.05937 -3.159549,5.83788 -2.454505,7.23007 0.275132,0.54327 0.604767,1.94524 0.732522,3.11548 0.201165,1.84264 0.114946,2.35948 -0.643519,3.85764 -0.526151,1.03929 -0.969123,2.67696 -1.109543,4.10202 -0.220881,2.24157 -0.178029,2.44511 0.778821,3.69969 0.873601,1.14543 1.00911,1.62835 0.987407,3.51893 -0.02078,1.81099 -0.212845,2.48923 -1.106622,3.90793 -0.84546,1.34201 -1.134639,2.28804 -1.325114,4.33503 -0.239402,2.57284 -0.258664,10.83797 -0.03172,13.60937 0.154509,1.8868 -0.07959,2.64584 -0.816004,2.64584 -0.336172,0 -0.762038,0.13313 -0.946365,0.29585 -0.184326,0.16273 -1.386978,0.48053 -2.672563,0.70624 -2.488259,0.43686 -6.148752,1.51666 -7.893132,2.32838 -0.58208,0.27086 -1.85208,0.79571 -2.82222,1.16632 -1.97407,0.75413 -5.34175,2.83289 -6.22002,3.83941 -0.79518,0.9113 -2.63159,4.56456 -3.25759,6.48046 -0.91824,2.81036 -1.31687,6.65826 -1.07498,10.37657 0.40736,6.26166 2.6866,17.81125 5.60171,28.38548 1.17879,4.27596 3.21925,9.44603 5.40639,13.69861 0.91537,1.7798 0.99993,1.84319 2.71409,2.03431 0.97311,0.1085 2.801161,0.32638 4.062342,0.48417 1.261181,0.15779 6.658681,0.25837 11.994446,0.22351 7.616918,-0.0498 10.345682,-0.19468 12.700002,-0.67443 z m -20.284725,-8.17211 c -0.582083,-0.0784 -2.055918,-0.23509 -3.275189,-0.34815 -2.189255,-0.20301 -2.22545,-0.22388 -2.906981,-1.67552 -0.767815,-1.63541 -2.691525,-8.24005 -3.818985,-13.11161 -0.40415,-1.74625 -0.90291,-4.66507 -1.10836,-6.48626 -0.20545,-1.8212 -0.45784,-3.44766 -0.56086,-3.61436 -0.10303,-0.1667 -0.24898,-2.80413 -0.32434,-5.86095 -0.12548,-5.08963 -0.0614,-5.84011 0.76011,-8.90801 0.84033,-3.13804 1.01218,-3.45603 2.71448,-5.02281 0.99954,-0.91998 2.531722,-1.91985 3.404847,-2.22193 2.973688,-1.02884 8.489027,-1.92873 11.821024,-1.92873 1.816368,0 3.709702,-0.15482 4.207401,-0.34405 0.899848,-0.34212 0.904762,-0.3663 0.878515,-4.32152 -0.01453,-2.18762 -0.143245,-6.27936 -0.286067,-9.09276 -0.142822,-2.81341 -0.137622,-10.03653 0.01157,-16.05139 0.209603,-8.45124 0.433377,-11.85792 0.984839,-14.99306 0.796265,-4.52687 2.25327,-10.04812 2.837307,-10.75184 0.210104,-0.25316 0.813467,-0.54541 1.340803,-0.64945 0.527336,-0.10403 1.673165,-0.35955 2.54629,-0.56782 2.040996,-0.48684 15.611227,-1.02439 17.462502,-0.69172 0.776111,0.13946 3.077987,0.43772 5.115279,0.6628 4.787008,0.52887 9.355653,1.47658 12.809023,2.65708 2.374079,0.81155 2.742488,1.04677 2.66536,1.70175 -0.0953,0.80931 0.777727,3.72375 1.812795,6.0517 1.202704,2.70499 1.430401,3.17037 1.208204,2.46945 -0.123014,-0.38806 -0.306419,-5.70618 -0.407568,-11.81806 -0.182291,-11.01493 -0.175715,-11.15112 0.749244,-15.5119 0.513232,-2.41968 1.088605,-4.55487 1.278604,-4.74487 0.189982,-0.18999 0.345437,-0.71867 0.345437,-1.17484 0,-0.6247 0.326489,-0.96616 1.322917,-1.38357 1.049342,-0.43957 2.198373,-0.51717 5.556263,-0.37526 2.32833,0.0984 4.94771,0.35056 5.82083,0.56033 0.87313,0.20978 3.01625,0.56155 4.7625,0.78171 1.74625,0.22016 4.11552,0.555 5.26504,0.74409 1.14952,0.18909 3.53717,0.56104 5.30588,0.82655 3.6286,0.54471 9.67274,2.1549 13.53805,3.6066 l 2.58952,0.97255 -0.23581,1.76389 c -0.8133,6.08353 -0.93014,24.67263 -0.33591,53.44583 0.23217,11.24186 0.38305,14.5644 0.84909,18.69722 0.18597,1.64924 0.43562,4.50674 0.55476,6.35 0.12066,1.86673 0.8132,5.93002 1.5633,9.17223 0.74066,3.20145 1.46068,6.69395 1.60005,7.76111 0.27559,2.11028 1.71358,6.99148 2.52544,8.57249 0.27897,0.54327 0.40986,1.29454 0.29086,1.66949 -0.29168,0.919 -1.71394,1.48606 -6.52277,2.60068 -2.23131,0.51718 -4.61257,1.08729 -5.29166,1.26689 -2.2538,0.59607 -9.66179,1.15387 -12.34722,0.9297 -3.10688,-0.25934 -7.15668,-1.29184 -9.46998,-2.41437 -0.90339,-0.43837 -3.78565,-2.22121 -6.40503,-3.96186 -3.24398,-2.15574 -5.7186,-4.13765 -7.76111,-6.21584 -3.057969,-3.11138 -4.938899,-5.32619 -4.938899,-5.81558 0,-0.15013 -0.83886,-1.39834 -1.864135,-2.77381 -2.459923,-3.30014 -4.485866,-6.40832 -4.485866,-6.88216 0,-0.20965 -0.119062,-0.38243 -0.264583,-0.38394 -0.145521,-10e-4 -0.434527,-0.3587 -0.642239,-0.79375 -0.207709,-0.43505 -1.576021,-3.09287 -3.040698,-5.90628 -3.461103,-6.64822 -3.467781,-6.66134 -5.386702,-10.58333 l -1.63974,-3.35139 0.283507,2.29306 c 0.155931,1.26118 0.237913,6.42055 0.182181,11.46528 -0.07014,6.34967 -0.252247,9.77445 -0.59176,11.12926 -0.269741,1.07637 -0.599271,2.98137 -0.732293,4.23333 -0.407684,3.83703 -1.647955,7.8557 -4.839833,15.68185 -1.639411,4.01966 -2.90243,6.08333 -5.72158,9.34861 -1.444995,1.67366 -2.380449,2.42507 -3.463152,2.78181 -1.13059,0.37251 -4.545811,0.51126 -14.359779,0.58337 -7.082015,0.052 -13.35264,0.0305 -13.934724,-0.048 z m 21.073388,-1.53815 c 4.605828,-0.28209 5.389972,-0.42376 6.879167,-1.24278 0.92443,-0.50842 2.085827,-1.2786 2.58088,-1.71151 2.452057,-2.14426 5.005607,-7.28697 7.824506,-15.75811 1.207654,-3.62916 2.022335,-6.75064 2.163689,-8.29028 0.124693,-1.3582 0.462065,-3.34257 0.749713,-4.40972 0.342198,-1.26953 0.599856,-4.60491 0.745328,-9.64821 0.226451,-7.85074 0.163025,-8.76683 -1.420323,-20.51429 -0.41082,-3.04802 -1.157188,-5.76978 -2.321754,-8.46667 -0.891723,-2.06505 -1.797646,-5.21933 -1.626845,-5.66443 0.452543,-1.17931 1.300621,-0.38648 2.670207,2.49626 0.785336,1.65299 1.427882,3.15763 1.427882,3.34365 0,0.18602 0.57234,1.57201 1.271866,3.07998 1.800836,3.88207 2.012799,4.38243 3.780572,8.9244 0.870381,2.23627 2.211032,5.41127 2.979223,7.05555 0.768191,1.64428 1.510492,3.38647 1.649554,3.87154 0.139065,0.48506 0.879888,2.1198 1.646273,3.63273 0.766385,1.51295 1.295678,2.90896 1.17621,3.10227 -0.119468,0.1933 -0.06582,0.54294 0.119218,0.77697 0.185035,0.23404 0.853486,1.37802 1.485438,2.54219 0.631956,1.16417 1.425247,2.43417 1.762873,2.82222 0.337623,0.38806 1.034944,1.41993 1.549598,2.29306 1.907194,3.23559 6.888011,9.08837 10.291611,12.09331 1.92963,1.70361 4.59392,3.72767 5.92065,4.49792 1.32673,0.77024 2.50093,1.40044 2.60932,1.40044 0.1084,0 1.02253,0.5479 2.03141,1.21755 1.00889,0.66967 2.29532,1.42179 2.85874,1.6714 0.56342,0.2496 1.18315,0.62892 1.37718,0.84291 0.49683,0.54796 5.63899,1.5598 7.92688,1.5598 3.29255,0 10.01592,-0.77391 10.76233,-1.23882 0.39246,-0.24445 2.06295,-0.64298 3.71218,-0.88562 1.64924,-0.24264 3.59856,-0.67674 4.33184,-0.96467 1.11909,-0.43944 1.29464,-0.64419 1.09302,-1.27484 -0.96384,-3.01479 -1.45437,-4.99837 -3.80623,-15.3916 -1.01336,-4.47818 -1.8759,-10.34282 -2.1532,-14.64028 -0.11268,-1.74625 -0.36183,-5.00063 -0.55365,-7.23194 -0.30029,-3.49304 -1.121,-46.78439 -1.04999,-55.38611 0.0314,-3.80007 0.36084,-10.11967 0.59129,-11.34159 0.16637,-0.8821 0.0413,-0.97895 -2.2252,-1.72265 -1.32082,-0.43341 -2.56024,-0.90081 -2.75427,-1.03867 -0.19403,-0.13786 -1.33874,-0.52007 -2.54381,-0.84936 -1.98531,-0.54249 -3.835,-0.88872 -13.50758,-2.52839 -1.64923,-0.27958 -4.31339,-0.50893 -5.92036,-0.50967 -1.70797,-7.7e-4 -3.41447,-0.20721 -4.10781,-0.49691 -1.4467,-0.60447 -6.10911,-1.07722 -7.69314,-0.78006 -1.985544,0.37249 -2.17658,1.33775 -1.921737,9.70998 0.250589,8.23245 0.906314,14.50432 2.226097,21.29187 0.49937,2.56828 0.95565,5.14586 1.01394,5.72795 0.16104,1.60796 5.48842,16.81468 6.18456,17.65346 0.19364,0.23334 0.7528,1.57119 1.24257,2.97302 0.48977,1.40183 1.14371,2.93524 1.4532,3.40757 0.30948,0.47234 0.46605,0.95544 0.34793,1.07356 -0.11812,0.11812 1.05101,2.66831 2.59805,5.66708 1.54705,2.99877 2.81281,5.66593 2.81281,5.92702 0,0.73127 -0.52735,0.89469 -1.63517,0.50672 -1.06358,-0.37249 -1.53739,-0.99549 -4.01713,-5.28205 -0.84182,-1.4552 -2.38645,-4.05161 -3.43251,-5.76978 -1.04606,-1.71818 -2.39965,-4.1788 -3.00799,-5.46806 -0.60834,-1.28926 -1.70322,-3.33094 -2.43306,-4.53707 -0.72984,-1.20614 -1.80945,-3.11114 -2.39915,-4.23334 -0.589689,-1.1222 -1.212426,-2.27848 -1.383862,-2.56952 -0.531566,-0.90242 -1.69375,-3.6069 -2.501371,-5.82084 -0.424674,-1.16416 -1.706993,-4.02166 -2.849595,-6.35 -1.293834,-2.6365 -2.254031,-5.14595 -2.545567,-6.65276 l -0.468108,-2.41943 -2.450056,-0.83018 c -1.347527,-0.45659 -3.085053,-0.91549 -3.861164,-1.01977 -0.776111,-0.10428 -3.077986,-0.42334 -5.115278,-0.70903 -2.037292,-0.28569 -6.482293,-0.62178 -9.877779,-0.74687 -6.04041,-0.22254 -7.305341,-0.12874 -13.547804,1.00463 l -2.4353,0.44214 -0.646624,2.99619 c -0.841699,3.90009 -1.490267,17.61511 -1.209364,25.57397 0.295317,8.36736 0.902903,14.99709 1.477514,16.12207 0.267618,0.52394 0.486576,1.44591 0.486576,2.04882 0,0.60292 0.327621,2.71424 0.728052,4.69183 0.603974,2.98285 0.889547,3.73059 1.675695,4.38761 0.521201,0.4356 1.131076,0.79279 1.355277,0.79375 0.878424,0.004 3.369833,1.61876 4.223174,2.73755 1.389197,1.82132 0.371983,3.12803 -1.136548,1.46 -1.446594,-1.59955 -3.187355,-2.12498 -8.214869,-2.47955 -6.471585,-0.45642 -15.576266,-0.18084 -17.857172,0.54051 -0.970139,0.3068 -2.108211,0.55955 -2.52905,0.56165 -1.199667,0.006 -2.933636,1.15184 -2.941906,1.94409 -0.004,0.38806 -0.25015,1.40273 -0.54687,2.25482 -0.75314,2.16271 -1.64797,9.62327 -1.20712,10.06413 0.19018,0.19018 0.34966,1.62371 0.3544,3.18564 0.005,1.56192 0.15473,3.47486 0.3333,4.25097 0.17856,0.77611 0.49791,2.83986 0.70965,4.58611 0.21175,1.74625 0.78723,4.68312 1.278861,6.52639 0.491628,1.84326 1.21961,4.57214 1.617741,6.06416 0.435627,1.63256 0.952591,2.81511 1.298264,2.96977 0.678554,0.30361 8.21367,0.70026 14.685509,0.77305 2.522362,0.0284 6.925385,-0.0917 9.784498,-0.2668 z M 166.73818,260.7742 c 1.9228,-0.77588 6.62129,-3.17481 9.12711,-4.66008 4.29657,-2.54669 6.66088,-4.76999 17.44923,-16.40856 0.86582,-0.93406 1.83106,-2.08981 2.14497,-2.56834 0.31391,-0.47854 0.81881,-1.06602 1.12199,-1.30552 1.21197,-0.95741 6.7568,-7.93545 9.34486,-11.76031 2.56365,-3.78876 3.01569,-4.52677 4.19159,-6.84321 0.24624,-0.48507 0.69717,-0.93336 1.00207,-0.99621 1.35243,-0.27876 0.98634,2.3071 -0.69738,4.92598 l -0.82546,1.28393 2.98005,1.12475 c 1.63902,0.6186 3.20626,1.35096 3.48276,1.62745 0.27649,0.27649 1.71945,0.98992 3.20658,1.5854 l 2.70388,1.08268 2.20385,-0.93665 c 2.10587,-0.89501 2.95085,-1.58921 9.14456,-7.51288 0.74903,-0.71638 2.29642,-2.44044 3.43864,-3.83125 l 2.07676,-2.52875 -1.32745,-1.05135 c -1.5488,-1.22667 -3.37955,-1.78558 -6.41128,-1.95729 -2.30793,-0.13071 -3.07061,-0.5325 -2.72424,-1.43515 0.14066,-0.36655 0.66173,-0.55354 1.54615,-0.55485 0.7337,-0.001 1.96899,-0.17667 2.7451,-0.39019 1.61691,-0.44484 5.11528,-2.43769 5.11528,-2.91392 0,-0.59557 -3.9541,-5.81425 -6.23347,-8.22702 -4.95637,-5.24645 -6.85158,-7.16412 -7.08018,-7.16412 -0.13152,0 -1.28784,-1.07156 -2.56959,-2.38125 -3.93078,-4.01645 -7.11375,-6.9044 -9.15484,-8.30632 l -1.94942,-1.33895 -2.34374,2.50869 c -2.67447,2.8627 -5.86245,7.34258 -7.8044,10.96706 -1.23292,2.30115 -6.53569,10.64912 -8.04304,12.66188 -5.21362,6.96176 -7.18759,9.80679 -8.44449,12.17083 -0.82528,1.55222 -1.92903,3.45722 -2.45278,4.23334 -0.52375,0.77611 -1.48799,2.36361 -2.14276,3.52777 -1.03264,1.83601 -5.76433,8.78519 -7.79582,11.44928 -0.3766,0.49387 -1.29594,1.70353 -2.04299,2.68813 -0.74704,0.9846 -2.00574,2.303 -2.79711,2.92978 -1.20022,0.95059 -1.55803,1.07581 -2.15739,0.75504 -0.59464,-0.31824 -0.71854,-0.73342 -0.71854,-2.4077 0,-2.57315 1.07475,-6.46337 2.6273,-9.50989 1.51546,-2.97374 2.56547,-6.34262 4.42425,-14.19491 0.80378,-3.39549 2.07503,-7.99924 2.825,-10.23056 0.74997,-2.23132 1.70879,-5.32694 2.13072,-6.87917 0.42192,-1.55222 0.90131,-3.21909 1.06531,-3.70416 0.164,-0.48507 0.70313,-2.60226 1.19808,-4.70486 0.49494,-2.1026 1.27701,-4.9601 1.73793,-6.35 1.01129,-3.04953 2.08685,-6.54688 2.67578,-8.7007 0.23875,-0.87312 0.95363,-2.8575 1.58864,-4.40972 0.63501,-1.55222 1.25484,-3.24768 1.37742,-3.76769 0.12257,-0.52001 0.45136,-1.17398 0.73065,-1.45327 0.44188,-0.44188 0.38169,-0.62862 -0.46369,-1.43854 -0.53432,-0.51191 -2.7478,-1.71597 -4.91885,-2.6757 -2.17104,-0.95972 -4.46294,-1.98346 -5.09309,-2.27496 -2.31174,-1.0694 -8.93647,-3.09932 -11.70469,-3.58651 -1.56563,-0.27553 -3.83097,-0.50119 -5.03409,-0.50146 -2.23862,-4.9e-4 -5.206,0.49957 -6.04056,1.01795 -0.61473,0.38183 -0.94196,1.93572 -1.79142,8.50681 -1.75234,13.55542 -1.89566,16.46238 -1.63486,33.16087 0.13485,8.63424 0.30015,21.7669 0.36734,29.18371 0.0672,7.4168 0.21656,13.63783 0.33193,13.82452 0.11538,0.18669 0.28746,1.34152 0.38241,2.56629 0.37941,4.89448 1.32914,10.38189 2.09754,12.11939 0.44175,0.99886 1.2531,2.2333 1.80301,2.7432 0.5499,0.50991 1.91606,1.41544 3.03589,2.01231 3.21498,1.71356 6.5895,2.16671 8.97299,1.20493 z m 80.56462,-37.02969 c 0,-0.68346 1.7581,-4.1782 3.36793,-6.69477 1.29579,-2.02565 3.102,-4.05489 3.60922,-4.05489 0.16398,0 0.65739,-0.33469 1.09648,-0.74376 0.43908,-0.40907 1.80252,-1.33057 3.02986,-2.04779 l 2.23153,-1.30403 -1.54321,-0.81867 c -1.44891,-0.76864 -6.42299,-5.8391 -7.63777,-7.78575 -0.7043,-1.12863 -1.82573,-4.51715 -2.3934,-7.23194 l -0.44261,-2.11667 -1.18106,3.70417 c -0.64959,2.03729 -1.11745,3.07236 -1.12136,3.32098 -0.004,0.24863 -0.37889,0.57684 -0.73674,1.28987 -0.40248,0.80675 -0.39866,0.58497 -0.40248,0.80675 -0.004,0.22177 -0.83966,1.4351 -1.85741,2.69628 -1.19548,1.48142 -2.83242,2.93785 -4.62471,4.11474 l -2.77426,1.82167 1.36847,0.69877 c 2.05189,1.04772 5.19089,4.55212 6.55891,7.32241 0.6645,1.34562 1.59044,3.59752 2.05764,5.00422 0.79435,2.39169 1.39497,3.26074 1.39497,2.01841 z M 29.81123,209.43048 c 1.550003,-0.36128 3.216878,-0.9791 3.704167,-1.37293 0.487292,-0.39384 1.365313,-1.05282 1.951157,-1.46441 1.164707,-0.81828 3.084619,-3.42887 3.675938,-4.99834 0.569302,-1.51103 0.44927,-2.88652 -0.312011,-3.57547 -0.665892,-0.60262 -0.724637,-0.56087 -1.986848,1.41229 -1.904852,2.97776 -4.044142,4.97749 -5.850524,5.46886 -1.906799,0.51868 -6.131208,0.23118 -8.762568,-0.59636 -2.71236,-0.85301 -5.27073,-2.71584 -6.65373,-4.84478 -1.43897,-2.21511 -2.4482,-6.0799 -2.24608,-8.6013 0.1295,-1.61546 0.24552,-1.85191 0.90817,-1.85076 0.41783,7.1e-4 1.23595,0.28141 1.81803,0.62375 1.23838,0.72832 4.15973,1.90921 6.81595,2.7552 1.4701,0.46822 2.69757,0.55895 5.661625,0.41846 4.053639,-0.19214 4.786799,-0.43317 8.05336,-2.6476 3.433177,-2.32739 3.803939,-5.14724 1.232651,-9.37498 -3.10847,-5.11099 -7.297565,-8.96332 -10.611336,-9.75828 -1.54637,-0.37097 -2.05256,-0.32873 -4.33486,0.36173 -1.42123,0.42997 -3.05388,0.95223 -3.62812,1.16061 -0.96776,0.35117 -2.87982,2.10272 -5.78981,5.3038 -0.65418,0.71963 -1.36856,1.25157 -1.5875,1.1821 -0.21894,-0.0695 -0.85559,-0.96973 -1.41479,-2.00058 -0.5591903,-1.03085 -1.3266801,-1.95533 -1.7055101,-2.0544 -0.53524,-0.13997 -0.58384,-0.25012 -0.21801,-0.49409 0.31677,-0.21124 0.12454,-0.28179 -0.58754,-0.21564 -0.82454,0.0766 -1.04751,-0.0381 -1.00933,-0.51904 0.0398,-0.50131 -0.24099,-0.61736 -1.49374,-0.61736 -1.19511,0 -1.79449,0.22494 -2.65997,0.99824 -0.91908,0.82121 -1.07482,1.16717 -0.87816,1.95074 0.13148,0.52387 0.66582,1.30498 1.1874,1.73579 2.33758,1.93074 5.14444,4.74396 5.58715,5.59981 0.39008,0.75411 0.41163,1.52891 0.11087,3.98764 -0.2053,1.67842 -0.32049,4.90849 -0.25597,7.17792 0.11076,3.89578 0.18853,4.27539 1.3925101,6.79641 1.39751,2.92627 2.82231,4.68646 5.25119,6.48727 1.74982,1.29735 3.6693,1.93534 6.87917,2.28649 2.55857,0.27989 4.0639,0.14002 7.757069,-0.72079 z m -9.552999,-23.62827 c -1.90545,-0.45332 -3.07588,-1.53981 -2.75411,-2.55659 0.46347,-1.46449 1.38761,-2.36336 3.53841,-3.44164 4.23332,-2.12233 6.60061,-1.67846 8.811339,1.65214 1.401424,2.11134 1.373569,2.88224 -0.14055,3.88982 -0.735242,0.48926 -1.772109,0.65528 -4.484159,0.71801 -1.94028,0.0449 -4.1772,-0.0729 -4.97093,-0.26174 z m 6.98702,-1.54161 c 0.7208,-0.12147 1.405287,-0.37415 1.521083,-0.56151 0.316706,-0.51244 -1.669943,-3.10856 -2.478843,-3.2393 -1.37959,-0.22298 -3.90096,0.44948 -5.26375,1.40388 -0.76076,0.53277 -1.44419,1.15365 -1.51873,1.37972 -0.0745,0.22607 0.2304,0.52813 0.67764,0.67126 1.06822,0.34185 4.54904,0.78296 5.2229,0.66189 0.29104,-0.0523 1.11891,-0.19447 1.8397,-0.31594 z m 3.169772,18.84278 c 1.535684,-0.42651 2.891582,-1.78251 5.249217,-5.24963 1.287823,-1.89385 1.769795,-2.96631 1.918805,-4.26957 l 0.198995,-1.74044 -2.32283,1.23229 -2.322827,1.23228 -5.011942,0.0157 c -5.01009,0.0157 -5.01338,0.0152 -8.85415,-1.41646 -2.1132,-0.7877 -3.89914,-1.43218 -3.96875,-1.43218 -0.0696,0 -0.12416,0.67468 -0.12124,1.4993 0.007,1.87342 0.61462,3.651 1.86673,5.45779 1.81927,2.62521 3.6075,3.78167 6.9474,4.49293 2.81736,0.59998 4.711987,0.65249 6.420592,0.17795 z m 178.760637,92.82138 c -0.57778,-0.57778 -1.0312,-1.41071 -1.0312,-1.89432 0,-1.28922 1.18127,-4.71446 2.51954,-7.30578 0.65155,-1.26159 1.45754,-2.93101 1.79111,-3.70983 0.60784,-1.41924 2.26869,-6.91714 3.08859,-10.22415 0.24052,-0.97014 0.5084,-2.03535 0.59528,-2.36713 0.12117,-0.46274 -0.3101,-0.32139 -1.85163,0.60687 -2.18937,1.31837 -5.08571,2.28943 -6.8286,2.28943 -1.83185,0 -3.69932,-1.20758 -5.02225,-3.24758 -0.66616,-1.02724 -1.43348,-2.74083 -1.70515,-3.80798 -0.71417,-2.80523 -0.57508,-8.43533 0.28324,-11.46528 2.42686,-8.56697 4.55897,-11.81805 7.75048,-11.81805 0.55464,0 1.29563,0.21001 1.64666,0.46669 0.79833,0.58374 1.60098,2.83388 1.60798,4.50775 0.008,1.85091 -0.61413,3.42288 -2.19832,5.55697 -1.12472,1.51513 -1.47633,2.37 -1.77898,4.32529 -0.31869,2.05891 -0.28251,2.73734 0.23323,4.37345 0.57821,1.83431 0.67212,1.93652 1.77915,1.93652 1.26277,0 1.161,0.116 4.47103,-5.09631 1.55558,-2.44959 1.60573,-2.61167 3.22578,-10.42592 0.22124,-1.06715 0.57108,-2.05691 0.77742,-2.19946 0.20634,-0.14255 1.05219,-0.26161 1.87966,-0.26458 1.21217,-0.004 1.74526,0.21736 2.74371,1.14113 1.00695,0.93162 1.3084,1.54328 1.60825,3.26319 1.12202,6.43597 1.26036,11.47169 0.50395,18.34445 -0.3728,3.38724 -0.81852,5.4622 -1.70503,7.93749 -0.66016,1.84327 -1.60565,4.15026 -2.10109,5.12665 -0.49544,0.97639 -1.45959,3.20526 -2.14256,4.95306 -0.68296,1.74779 -1.76937,3.9916 -2.41424,4.98623 -0.64486,0.99464 -1.55185,2.44129 -2.01552,3.21478 -0.58968,0.98372 -1.15951,1.46965 -1.89618,1.61699 -1.96428,0.39285 -2.77537,0.21837 -3.81431,-0.82057 z m 5.42325,-3.64311 c 1.04099,-1.60073 2.09912,-3.46604 2.35141,-4.14514 0.57279,-1.54183 1.30194,-3.19192 3.19568,-7.23194 0.81855,-1.74625 1.70023,-3.88938 1.95929,-4.7625 0.25906,-0.87313 0.81387,-3.88938 1.2329,-6.70278 0.61286,-4.11469 0.72311,-6.04686 0.56364,-9.87778 -0.2079,-4.99437 -0.9779,-9.50603 -1.85139,-10.84791 -0.30445,-0.46771 -0.87285,-0.79375 -1.38377,-0.79375 -0.61837,0 -0.9113,0.22769 -1.02119,0.79375 -0.13933,0.7177 -0.87155,4.09674 -1.58623,7.32014 -0.25381,1.14476 -2.49488,4.95521 -4.87583,8.29027 -0.92758,1.2993 -1.15315,1.41956 -2.84656,1.51774 -1.60473,0.093 -1.94858,-0.0115 -2.69767,-0.81974 -0.90156,-0.9728 -1.6172,-3.53646 -1.60298,-5.74244 0.0149,-2.31223 0.60102,-3.96273 2.32323,-6.54227 1.55418,-2.32787 1.6814,-2.68165 1.63412,-4.54437 -0.0556,-2.1897 -0.53195,-3.44808 -1.30527,-3.44808 -0.96463,0 -2.66875,1.8567 -3.71372,4.04625 -0.58489,1.22553 -1.06344,2.53097 -1.06344,2.90099 0,0.37002 -0.14117,0.82357 -0.31372,1.0079 -0.53173,0.56803 -1.39202,4.0888 -1.63349,6.68514 -0.1577,1.69557 -0.0562,3.29097 0.32394,5.09096 0.30449,1.44183 0.7546,2.74908 1.00025,2.90501 0.24565,0.15593 0.32349,0.28593 0.17299,0.2889 -0.5193,0.0103 0.78064,2.04069 1.92064,2.99994 0.98037,0.82493 1.38032,0.93913 2.80847,0.8019 2.12728,-0.2044 5.0028,-1.62969 6.93695,-3.43838 2.45066,-2.29171 3.31116,-1.79392 2.88827,1.67083 -0.28587,2.34221 -2.36298,9.90324 -3.60987,13.14056 -0.41103,1.06715 -1.50045,3.54597 -2.42093,5.50849 -0.92049,1.96252 -1.77886,4.12925 -1.9075,4.81495 -0.18694,0.9965 -0.10344,1.32256 0.41603,1.62453 1.52331,0.8855 2.1435,0.50618 4.10575,-2.51117 z"
       id="path39"
       inkscape:connector-curvature="0"
       sodipodi:nodetypes="ccccsccccccccsscccsscssssscccccssccssscscsccsccccscsccsscccccscsscssscccccccccsccccssccccssscccssscccccscscccsccccssccccccccssscccccssssccscccccccsscsccccscccccccccsccccsscscccccsccsscccccscccscssccsssccccssscsccccscccscccccccccscccccccccssssccccccccssccsccccccsscccccccccscccsccccccscccccccscscccsccscsccccsccccsccscscssssccscccccccccscssssccsscccccsccccccccscssscscsscscccccccccscccscsccssscccscccccscccscscscscsccsscsccsscccsscscccccsccccccccsccccccccccccccccccscccccsccccccccssscccscccccccccsscscscscscsccccccsscscscccssscccccccccccscccccscccscccccccccccsccccccccccscccccsccccccsccccccccccccccsccccccccsccssccccsssccsccsscsccscccsccccccssccccscsccccccccscscccscscc" />
  </g>
</svg>
