<?xml version="1.0" encoding="UTF-8" standalone="no"?>
<!-- Created with Inkscape (http://www.inkscape.org/) -->

<svg
   width="14.847393mm"
   height="14.86363mm"
   viewBox="0 0 14.847393 14.86363"
   version="1.1"
   id="svg5"
   inkscape:version="1.1.2 (0a00cf5339, 2022-02-04, custom)"
   sodipodi:docname="disegno.svg"
   xmlns:inkscape="http://www.inkscape.org/namespaces/inkscape"
   xmlns:sodipodi="http://sodipodi.sourceforge.net/DTD/sodipodi-0.dtd"
   xmlns="http://www.w3.org/2000/svg"
   xmlns:svg="http://www.w3.org/2000/svg">
  <sodipodi:namedview
     id="namedview7"
     pagecolor="#505050"
     bordercolor="#eeeeee"
     borderopacity="1"
     inkscape:pageshadow="0"
     inkscape:pageopacity="0"
     inkscape:pagecheckerboard="0"
     inkscape:document-units="mm"
     showgrid="false"
     inkscape:zoom="9.6346927"
     inkscape:cx="29.528705"
     inkscape:cy="29.476809"
     inkscape:window-width="1536"
     inkscape:window-height="791"
     inkscape:window-x="0"
     inkscape:window-y="0"
     inkscape:window-maximized="1"
     inkscape:current-layer="layer1" />
  <defs
     id="defs2" />
  <g
     inkscape:label="Livello 1"
     inkscape:groupmode="layer"
     id="layer1"
     transform="translate(-0.07913305,-0.04042257)">
    <g
       id="g139461"
       transform="translate(-127.3354,-162.35616)">
      <path
         style="fill:#fefefe;stroke-width:0.0846667"
         d="m 135.31307,177.13823 c -0.0283,-0.0737 -0.0514,-0.38259 -0.0514,-0.68652 0,-0.53057 -0.008,-0.55071 -0.1905,-0.50544 -3.5234,0.87202 -7.17174,-1.59244 -7.63942,-5.16044 -0.0647,-0.49316 0.0154,-0.54101 0.90528,-0.54101 0.42019,0 0.42019,0 0.34925,-0.35984 -0.69704,-3.5355 1.72324,-7.01586 5.19957,-7.47702 0.45176,-0.0599 0.52915,0.0926 0.52915,1.04288 0,0.26609 0.0183,0.2888 0.1905,0.23621 3.01271,-0.92008 6.70117,1.31815 7.51533,4.56048 0.27523,1.09605 0.23226,1.15062 -0.90582,1.15062 -0.28835,0 -0.28835,0 -0.22101,0.3175 0.58126,2.74071 -0.82615,5.70281 -3.277,6.89695 -1.16837,0.56927 -2.29285,0.81514 -2.40394,0.52563 z m 0.29186,-4.0857 c 0.99675,-0.63629 1.65851,-1.78722 1.69989,-2.95644 0.0157,-0.44394 0.0157,-0.44394 0.40445,-0.44524 0.60794,-0.002 0.66725,-0.0814 0.4006,-0.53644 -0.12405,-0.21166 -0.25626,-0.40383 -0.29381,-0.42704 -0.0375,-0.0232 -0.54135,0.43203 -1.11955,1.01163 -1.01445,1.01689 -1.06384,1.05382 -1.40945,1.05382 -0.43527,0 -0.98224,-0.41381 -0.9398,-0.71101 0.0371,-0.25967 0.33401,-0.26599 0.57244,-0.0122 0.30969,0.32965 0.39681,0.28451 1.42015,-0.73593 1.09497,-1.09186 1.08456,-1.06541 0.55166,-1.40166 -0.70491,-0.44479 -0.72321,-0.44222 -1.38153,0.19333 -0.58847,0.56813 -0.71104,0.61805 -0.87586,0.35676 -0.0728,-0.11549 -0.006,-0.22564 0.36055,-0.59715 0.48095,-0.48699 0.46371,-0.55871 -0.13516,-0.56234 -0.17432,-0.001 -0.1905,-0.0407 -0.1905,-0.46682 0,-0.54788 -0.0579,-0.56972 -0.59726,-0.22538 -0.94113,0.60079 -1.60181,1.69879 -1.67101,2.7771 -0.04,0.62328 -0.04,0.62328 -0.53686,0.62328 -0.57105,0 -0.58998,0.0379 -0.28163,0.56406 0.27697,0.47262 0.16426,0.52839 1.3967,-0.69106 0.9819,-0.97155 1.09532,-1.05834 1.38311,-1.05834 0.38367,0 1.05038,0.5523 0.95784,0.79347 -0.10102,0.26323 -0.31189,0.25608 -0.597,-0.0203 -0.37079,-0.35938 -0.31694,-0.38625 -1.39718,0.69706 -1.11145,1.11462 -1.11888,1.14647 -0.36388,1.56067 0.53649,0.29432 0.53649,0.29432 1.10279,-0.26764 0.57281,-0.56841 0.8731,-0.69702 0.97958,-0.41954 0.0387,0.1008 -0.0878,0.28639 -0.43279,0.635 -0.48744,0.49259 -0.48744,0.49259 -0.0456,0.49259 0.44185,0 0.44185,0 0.44185,0.37407 0,0.704 0.0602,0.74448 0.59725,0.40164 z"
         id="path139501" />
    </g>
    <path
       style="fill:#000000;stroke-width:0.0846667"
       id="path385"
       d="" />
    <path
       style="fill:#000000;stroke-width:0.0846667"
       id="path311"
       d="" />
  </g>
</svg>
